<svg width="15" height="20" viewBox="0 0 15 20" fill="none" xmlns="http://www.w3.org/2000/svg">
<path d="M7.31507 9.86467C7.79711 9.86467 8.20922 9.69301 8.55141 9.34969C8.89376 9.00637 9.06493 8.59369 9.06493 8.11165C9.06493 7.62962 8.89327 7.21743 8.54995 6.87508C8.20664 6.53289 7.79388 6.36179 7.31168 6.36179C6.82964 6.36179 6.41753 6.53345 6.07534 6.87677C5.73299 7.22009 5.56182 7.63285 5.56182 8.11505C5.56182 8.59708 5.73348 9.00919 6.0768 9.35138C6.42012 9.69357 6.83287 9.86467 7.31507 9.86467ZM7.31338 17.2752C9.2089 15.5783 10.6594 13.9507 11.665 12.3923C12.6706 10.834 13.1734 9.46911 13.1734 8.29769C13.1734 6.53135 12.6122 5.07927 11.4899 3.94144C10.3676 2.80361 8.97539 2.2347 7.31338 2.2347C5.65136 2.2347 4.25919 2.80361 3.13686 3.94144C2.01454 5.07927 1.45337 6.53135 1.45337 8.29769C1.45337 9.46911 1.95616 10.834 2.96173 12.3923C3.96731 13.9507 5.41785 15.5783 7.31338 17.2752ZM7.31338 19.2091C4.87494 17.0962 3.04643 15.1299 1.82786 13.3101C0.609286 11.4902 0 9.81937 0 8.29769C0 6.06175 0.723215 4.25157 2.16964 2.86716C3.61624 1.48274 5.33081 0.790527 7.31338 0.790527C9.29594 0.790527 11.0105 1.48274 12.4571 2.86716C13.9035 4.25157 14.6268 6.06175 14.6268 8.29769C14.6268 9.81937 14.0175 11.4902 12.7989 13.3101C11.5803 15.1299 9.75181 17.0962 7.31338 19.2091Z" fill="white"/>
</svg>
